<?xml version="1.0" encoding="UTF-8"?>
<svg id="Layer_1" xmlns="http://www.w3.org/2000/svg" version="1.1" viewBox="0 0 30 30">
  <!-- Generator: Adobe Illustrator 29.3.1, SVG Export Plug-In . SVG Version: 2.1.0 Build 151)  -->
  <defs>
    <style>
      .st0 {
        fill: none;
      }

      .st1 {
        fill: #b2b2b2;
      }

      .st1, .st2 {
        fill-rule: evenodd;
      }

      .st2 {
        fill: #1b1b1b;
      }
    </style>
  </defs>
  <g id="_x32_4x24_x2F_TEXT-EDITING_x2F_copy">
    <g id="copy">
      <g id="Bounding_Boxes">
        <polygon id="Shape" class="st0" points="0 0 30 0 30 30 0 30 0 0"/>
      </g>
      <path id="c2_x2F_copy" class="st1" d="M18.128,6.358l4.264,4.264c.144.144.144.377,0,.52-.069.069-.163.108-.26.108h-4.264c-.203,0-.368-.165-.368-.368v-4.264c0-.203.165-.368.368-.368.098,0,.191.039.26.108Z"/>
      <path id="c1_x2F_copy" class="st2" d="M22.5,23.75c0,2.071-1.679,3.75-3.75,3.75H7.5c-2.071,0-3.75-1.679-3.75-3.75v-13.75c0-2.071,1.679-3.75,3.75-3.75,0-2.071,1.679-3.75,3.75-3.75h7.376c1.017,0,1.991.413,2.697,1.145l3.874,4.01c.675.699,1.053,1.633,1.053,2.605v9.74c0,2.071-1.679,3.75-3.75,3.75ZM20,23.75h-8.75c-2.071,0-3.75-1.679-3.75-3.75v-11.25c-.69,0-1.25.56-1.25,1.25v13.75c0,.69.56,1.25,1.25,1.25h11.25c.69,0,1.25-.56,1.25-1.25ZM11.25,5c-.69,0-1.25.56-1.25,1.25v13.75c0,.69.56,1.25,1.25,1.25h11.25c.69,0,1.25-.56,1.25-1.25v-9.74c0-.324-.126-.635-.351-.868l-3.874-4.01c-.236-.244-.56-.382-.899-.382h-7.376ZM12.5,13.75h8.75c.69,0,1.25.56,1.25,1.25s-.56,1.25-1.25,1.25h-8.75c-.69,0-1.25-.56-1.25-1.25s.56-1.25,1.25-1.25ZM12.5,17.5h8.75c.69,0,1.25.56,1.25,1.25s-.56,1.25-1.25,1.25h-8.75c-.69,0-1.25-.56-1.25-1.25s.56-1.25,1.25-1.25Z"/>
    </g>
  </g>
</svg>