<?xml version="1.0" encoding="UTF-8"?>
<svg id="Layer_1" xmlns="http://www.w3.org/2000/svg" version="1.1" viewBox="0 0 30 30">
  <!-- Generator: Adobe Illustrator 29.3.1, SVG Export Plug-In . SVG Version: 2.1.0 Build 151)  -->
  <defs>
    <style>
      .st0 {
        fill: none;
      }

      .st1 {
        fill: #b2b2b2;
      }

      .st1, .st2 {
        fill-rule: evenodd;
      }

      .st2 {
        fill: #1b1b1b;
      }
    </style>
  </defs>
  <g id="_x32_4x24_x2F_SOCIAL-ACCOUNT_x2F_github">
    <g id="github">
      <g id="Bounding_Boxes">
        <polygon id="Shape" class="st0" points="0 0 30 0 30 30 0 30 0 0"/>
      </g>
      <path id="c2_x2F_github" class="st1" d="M11.25,24.322c-2.187.503-4.926.01-6.219-2.153-.05-.088-.191-.279-.402-.47-.296-.269-.617-.428-.965-.452-.689-.047-1.209-.644-1.161-1.333.047-.689.644-1.209,1.333-1.161.966.066,1.794.476,2.477,1.098.433.394.726.789.88,1.063.378.632,1.081.968,2.07,1.031.735.047,1.572-.083,2.009-.241-.014.153-.021.307-.021.464v2.155Z"/>
      <path id="c1_x2F_github" class="st2" d="M22.5,22.167v2.833c0,1.381-1.119,2.5-2.5,2.5h-6.25c-1.381,0-2.5-1.119-2.5-2.5v-2.833c0-.958.269-1.852.736-2.613-3.534-1.107-5.736-4.156-5.736-7.728,0-1.376.438-2.696,1.25-3.866-.025-3.628.478-5.461,2.346-5.461,1.008,0,2.219.526,3.746,1.548,1.051-.26,2.155-.394,3.283-.394s2.234.134,3.285.395c1.526-1.023,2.737-1.549,3.746-1.549,1.869,0,2.372,1.835,2.347,5.465.81,1.169,1.247,2.488,1.247,3.862,0,3.571-2.203,6.621-5.736,7.729.467.76.736,1.655.736,2.612ZM19.381,17.477c3.473-.26,5.619-2.679,5.619-5.65,0-.943-.337-1.859-.986-2.688l-.273-.349.008-.443c.025-1.444-.047-2.507-.2-3.155-.01-.043-.02-.083-.03-.119-.527.165-1.352.611-2.405,1.355l-.497.351-.583-.174c-.991-.296-2.058-.451-3.158-.451s-2.166.155-3.156.45l-.582.174-.497-.351c-1.053-.744-1.878-1.189-2.405-1.354-.01.036-.02.076-.03.118-.153.648-.225,1.709-.2,3.152l.008.443-.273.349c-.651.83-.989,1.748-.989,2.691,0,2.972,2.146,5.389,5.624,5.65.352.013.63.302.63.654l-.003,1.567c0,.19-.096.367-.254.472-.605.456-.997,1.181-.997,1.998v2.333c0,.276.224.5.5.5h5.25c.276,0,.5-.224.5-.5v-2.333c0-.819-.394-1.547-1.004-2.003-.154-.102-.246-.274-.246-.458v-1.577c.002-.351.28-.64.631-.653Z"/>
    </g>
  </g>
</svg>