<?xml version="1.0" encoding="UTF-8"?>
<svg id="Layer_1" xmlns="http://www.w3.org/2000/svg" version="1.1" viewBox="0 0 30 30">
  <!-- Generator: Adobe Illustrator 29.3.1, SVG Export Plug-In . SVG Version: 2.1.0 Build 151)  -->
  <defs>
    <style>
      .st0 {
        fill: none;
      }

      .st1 {
        fill: #b2b2b2;
      }

      .st1, .st2 {
        fill-rule: evenodd;
      }

      .st2 {
        fill: #1b1b1b;
      }
    </style>
  </defs>
  <g id="_x32_4x24_x2F_ARROWS_x2F_arrow-in-left">
    <g id="arrow-in-left">
      <g id="Bounding_Boxes">
        <polygon id="Shape" class="st0" points="0 0 30 0 30 30 0 30 0 0"/>
      </g>
      <path id="c2_x2F_arrow-in-left" class="st1" d="M6.25,12.5v5c0,.69-.56,1.25-1.25,1.25s-1.25-.56-1.25-1.25v-5c0-.69.56-1.25,1.25-1.25s1.25.56,1.25,1.25Z"/>
      <path id="c1_x2F_arrow-in-left" class="st2" d="M16.25,11.25v-3.75c0-.69-.56-1.25-1.25-1.25h-7.5c-.69,0-1.25.56-1.25,1.25v1.25c0,.69-.56,1.25-1.25,1.25s-1.25-.56-1.25-1.25v-1.25c0-2.071,1.679-3.75,3.75-3.75h7.5c2.071,0,3.75,1.679,3.75,3.75v3.75c0,.69-.56,1.25-1.25,1.25s-1.25-.56-1.25-1.25ZM8.756,15c-.004-.041-.006-.083-.006-.125,0-.365.147-.714.408-.972l3.579-3.537c.494-.488,1.295-.488,1.789,0,.494.488.494,1.28,0,1.768l-1.635,1.616h12.095c.699,0,1.265.56,1.265,1.25s-.566,1.25-1.265,1.25h-12.095l1.635,1.616c.494.488.494,1.28,0,1.768-.494.488-1.295.488-1.789,0l-3.579-3.537c-.261-.258-.408-.608-.408-.972,0-.042.002-.084.006-.125ZM6.25,21.25v1.25c0,.69.56,1.25,1.25,1.25h7.5c.69,0,1.25-.56,1.25-1.25v-3.75c0-.69.56-1.25,1.25-1.25s1.25.56,1.25,1.25v3.75c0,2.071-1.679,3.75-3.75,3.75h-7.5c-2.071,0-3.75-1.679-3.75-3.75v-1.25c0-.69.56-1.25,1.25-1.25s1.25.56,1.25,1.25Z"/>
    </g>
  </g>
</svg>