<?xml version="1.0" encoding="UTF-8"?>
<svg id="Layer_1" xmlns="http://www.w3.org/2000/svg" version="1.1" viewBox="0 0 30 30">
  <!-- Generator: Adobe Illustrator 29.3.1, SVG Export Plug-In . SVG Version: 2.1.0 Build 151)  -->
  <defs>
    <style>
      .st0 {
        fill: none;
      }

      .st1 {
        fill: #b2b2b2;
      }

      .st1, .st2 {
        fill-rule: evenodd;
      }

      .st2 {
        fill: #1b1b1b;
      }
    </style>
  </defs>
  <g id="_x32_4x24_x2F_MEDIA_x2F_pause">
    <g id="pause">
      <g id="Bounding_Boxes">
        <polygon id="Shape" class="st0" points="0 0 30 0 30 30 0 30 0 0"/>
      </g>
      <path id="c2_x2F_pause" class="st1" d="M20,6.25c.69,0,1.25.56,1.25,1.25v15c0,.69-.56,1.25-1.25,1.25s-1.25-.56-1.25-1.25V7.5c0-.69.56-1.25,1.25-1.25Z"/>
      <path id="c1_x2F_pause" class="st2" d="M10,6.25c.69,0,1.25.56,1.25,1.25v15c0,.69-.56,1.25-1.25,1.25s-1.25-.56-1.25-1.25V7.5c0-.69.56-1.25,1.25-1.25Z"/>
    </g>
  </g>
</svg>