<?xml version="1.0" encoding="UTF-8"?>
<svg id="Layer_1" xmlns="http://www.w3.org/2000/svg" version="1.1" viewBox="0 0 30 30">
  <!-- Generator: Adobe Illustrator 29.3.1, SVG Export Plug-In . SVG Version: 2.1.0 Build 151)  -->
  <defs>
    <style>
      .st0 {
        fill: none;
      }

      .st1 {
        fill: #b2b2b2;
      }

      .st1, .st2 {
        fill-rule: evenodd;
      }

      .st2 {
        fill: #1b1b1b;
      }
    </style>
  </defs>
  <g id="_x32_4x24_x2F_MEDIA_x2F_play">
    <g id="play">
      <g id="Bounding_Boxes">
        <polygon id="Shape" class="st0" points="0 0 30 0 30 30 0 30 0 0"/>
      </g>
      <path id="c2_x2F_play" class="st1" d="M8.75,12.5h0c.69,0,1.25.56,1.25,1.25v2.5c0,.69-.56,1.25-1.25,1.25h0c-.69,0-1.25-.56-1.25-1.25v-2.5c0-.69.56-1.25,1.25-1.25Z"/>
      <path id="c1_x2F_play" class="st2" d="M8.75,18.75h0c.69,0,1.25.56,1.25,1.25v.864c0,.138.112.25.25.25.051,0,.101-.016.143-.045l8.378-5.864c.113-.079.141-.235.061-.348-.017-.024-.038-.045-.061-.061l-8.378-5.864c-.113-.079-.269-.052-.348.061-.029.042-.045.092-.045.143v.864c0,.69-.56,1.25-1.25,1.25h0c-.69,0-1.25-.56-1.25-1.25v-3.75c0-.261.081-.513.233-.725.244-.342.629-.525,1.019-.525.251,0,.504.08.724.238l12.473,8.731c.128.088.237.198.325.326.148.216.225.462.225.706,0,.398-.196.79-.55,1.031l-12.473,8.731c-.212.151-.466.238-.727.238-.69,0-1.25-.56-1.25-1.25v-3.75c0-.69.56-1.25,1.25-1.25Z"/>
    </g>
  </g>
</svg>