<?xml version="1.0" encoding="UTF-8"?>
<svg id="Layer_1" xmlns="http://www.w3.org/2000/svg" version="1.1" viewBox="0 0 30 30">
  <!-- Generator: Adobe Illustrator 29.3.1, SVG Export Plug-In . SVG Version: 2.1.0 Build 151)  -->
  <defs>
    <style>
      .st0 {
        fill: none;
      }

      .st1 {
        fill: #b2b2b2;
      }

      .st1, .st2 {
        fill-rule: evenodd;
      }

      .st2 {
        fill: #1b1b1b;
      }
    </style>
  </defs>
  <g id="_x32_4x24_x2F_MEDIA_x2F_shuffle">
    <g id="shuffle">
      <g id="Bounding_Boxes">
        <polygon id="Shape" class="st0" points="0 0 30 0 30 30 0 30 0 0"/>
      </g>
      <path id="c2_x2F_shuffle" class="st1" d="M18.287,19.616c1.111,1.015,2.59,1.634,4.213,1.634h4.444c.307,0,.556.253.556.564v.582c0,.167-.073.326-.2.433l-3.889,3.29c-.1.084-.226.131-.356.131-.307,0-.556-.253-.556-.564v-1.936c-2.175,0-4.164-.793-5.695-2.107h0c-.317-.297-.363-.783-.107-1.134l.6-.824c.211-.289.616-.353.905-.142.03.022.058.046.084.073h0Z"/>
      <path id="c1_x2F_shuffle" class="st2" d="M16.25,15c0,1.65-.456,3.193-1.25,4.509-1.531,2.541-4.317,4.241-7.5,4.241h-3.75c-.69,0-1.25-.56-1.25-1.25s.56-1.25,1.25-1.25h3.75c3.452,0,6.25-2.798,6.25-6.25s-2.798-6.25-6.25-6.25h-3.75c-.69,0-1.25-.56-1.25-1.25s.56-1.25,1.25-1.25h3.75c3.183,0,5.969,1.699,7.5,4.241,1.531-2.541,4.317-4.241,7.5-4.241v-1.936c0-.311.249-.564.556-.564.13,0,.256.046.356.131l3.889,3.29c.127.107.2.266.2.433v.582c0,.311-.249.564-.556.564h-4.444c-3.452,0-6.25,2.798-6.25,6.25Z"/>
    </g>
  </g>
</svg>