<?xml version="1.0" encoding="UTF-8"?>
<svg id="Layer_1" xmlns="http://www.w3.org/2000/svg" version="1.1" viewBox="0 0 30 30">
  <!-- Generator: Adobe Illustrator 29.3.1, SVG Export Plug-In . SVG Version: 2.1.0 Build 151)  -->
  <defs>
    <style>
      .st0 {
        fill: none;
      }

      .st1 {
        fill: #b2b2b2;
      }

      .st1, .st2 {
        fill-rule: evenodd;
      }

      .st2 {
        fill: #1b1b1b;
      }
    </style>
  </defs>
  <g id="_x32_4x24_x2F_DESIGN-TOOLS_x2F_rotate">
    <g id="rotate">
      <g id="Bounding_Boxes">
        <polygon id="Shape" class="st0" points="0 0 30 0 30 30 0 30 0 0"/>
      </g>
      <path id="c2_x2F_rotate" class="st1" d="M8.706,21.08c1.614,1.67,3.863,2.67,6.294,2.67,3.599,0,6.791-2.193,8.117-5.474.259-.64.987-.949,1.627-.691.64.259.949.987.691,1.627-1.704,4.218-5.807,7.038-10.435,7.038-3.11,0-5.99-1.273-8.062-3.402l-1.937,1.937c-.286.286-.75.286-1.037,0-.137-.137-.215-.324-.215-.518v-6.034c0-.405.328-.733.733-.733h6.034c.405,0,.733.328.733.733,0,.194-.077.381-.215.518l-2.329,2.329h0Z"/>
      <path id="c1_x2F_rotate" class="st2" d="M21.294,8.92c-1.614-1.67-3.863-2.67-6.294-2.67-3.599,0-6.791,2.193-8.117,5.474-.259.64-.987.949-1.627.691-.64-.259-.949-.987-.691-1.627,1.704-4.218,5.807-7.038,10.435-7.038,3.11,0,5.99,1.273,8.062,3.402l1.937-1.937c.286-.286.75-.286,1.037,0,.137.137.215.324.215.518v6.034c0,.405-.328.733-.733.733h-6.034c-.405,0-.733-.328-.733-.733,0-.194.077-.381.215-.518l2.329-2.329h0Z"/>
    </g>
  </g>
</svg>