<?xml version="1.0" encoding="UTF-8"?>
<svg id="Layer_1" xmlns="http://www.w3.org/2000/svg" version="1.1" viewBox="0 0 30 30">
  <!-- Generator: Adobe Illustrator 29.3.1, SVG Export Plug-In . SVG Version: 2.1.0 Build 151)  -->
  <defs>
    <style>
      .st0 {
        fill: none;
      }

      .st1 {
        fill: #b2b2b2;
      }

      .st1, .st2 {
        fill-rule: evenodd;
      }

      .st2 {
        fill: #1b1b1b;
      }
    </style>
  </defs>
  <g id="_x32_4x24_x2F_ARROWS_x2F_double-arrows-03-right-left">
    <g id="double-arrows-03-right-left">
      <g id="Bounding_Boxes">
        <polygon id="Shape" class="st0" points="0 0 30 0 30 30 0 30 0 0"/>
      </g>
      <path id="c2_x2F_double-arrows-03-right-left" class="st1" d="M22.322,12.137l-1.616,1.616h5.549c.69,0,1.25.56,1.25,1.25s-.56,1.25-1.25,1.25h-5.549l1.616,1.616c.488.488.488,1.28,0,1.768-.488.488-1.28.488-1.768,0-1.918-1.914-2.88-2.875-2.887-2.882-.249-.256-.649-.664-1.201-1.223-.289-.293-.289-.764.002-1.056.552-.554.954-.962,1.206-1.223l2.88-2.884c.488-.488,1.28-.488,1.768,0,.488.488.488,1.28,0,1.768Z"/>
      <path id="c1_x2F_double-arrows-03-right-left" class="st2" d="M7.683,12.137c-.488-.488-.488-1.28,0-1.768.488-.488,1.28-.488,1.768,0l2.88,2.884c.252.261.654.669,1.206,1.223.291.292.291.763.002,1.056-.552.559-.953.967-1.201,1.223-.007.007-.969.968-2.887,2.882-.488.488-1.28.488-1.768,0-.488-.488-.488-1.28,0-1.768l1.616-1.616H3.75c-.69,0-1.25-.56-1.25-1.25s.56-1.25,1.25-1.25h5.549l-1.616-1.616Z"/>
    </g>
  </g>
</svg>