<?xml version="1.0" encoding="UTF-8"?>
<svg id="Layer_1" xmlns="http://www.w3.org/2000/svg" version="1.1" viewBox="0 0 30 30">
  <!-- Generator: Adobe Illustrator 29.3.1, SVG Export Plug-In . SVG Version: 2.1.0 Build 151)  -->
  <defs>
    <style>
      .st0 {
        fill: none;
      }

      .st1 {
        fill: #b2b2b2;
      }

      .st1, .st2 {
        fill-rule: evenodd;
      }

      .st2 {
        fill: #1b1b1b;
      }
    </style>
  </defs>
  <g id="_x32_4x24_x2F_USER-INTERFACE_x2F_setting">
    <g id="setting">
      <g id="Bounding_Boxes">
        <polygon id="Shape" class="st0" points="0 0 30 0 30 30 0 30 0 0"/>
      </g>
      <path id="c2_x2F_setting" class="st1" d="M20,15c0,.69-.56,1.25-1.25,1.25s-1.25-.56-1.25-1.25c0-1.381-1.119-2.5-2.5-2.5s-2.5,1.119-2.5,2.5,1.119,2.5,2.5,2.5c.69,0,1.25.56,1.25,1.25s-.56,1.25-1.25,1.25c-2.761,0-5-2.239-5-5s2.239-5,5-5,5,2.239,5,5Z"/>
      <path id="c1_x2F_setting" class="st2" d="M12.879,2.5h4.242c1.036,0,1.92.759,2.053,1.786l.17,1.312c.02.153.109.287.241.366l1.114.66c.135.08.299.092.444.033l1.372-.562c.952-.39,2.054-.029,2.579.855l2.121,3.577c.534.9.296,2.05-.547,2.672l-1.324.978c-.128.094-.203.244-.203.402v.841c0,.159.075.308.203.402l1.324.978c.842.622,1.081,1.772.547,2.672l-2.121,3.577c-.524.884-1.627,1.245-2.579.855l-1.372-.562c-.145-.059-.31-.047-.444.033l-1.114.66c-.132.078-.221.213-.241.366l-.17,1.312c-.133,1.027-1.017,1.786-2.053,1.786h-4.242c-1.036,0-1.92-.759-2.053-1.786l-.17-1.312c-.02-.153-.109-.287-.241-.366l-1.114-.66c-.135-.08-.299-.092-.444-.033l-1.372.562c-.952.39-2.054.029-2.579-.855l-2.121-3.577c-.534-.9-.296-2.05.547-2.672l1.324-.978c.128-.094.203-.244.203-.402v-.841c0-.159-.075-.308-.203-.402l-1.324-.978c-.842-.622-1.081-1.772-.547-2.672l2.121-3.577c.524-.884,1.627-1.245,2.579-.855l1.372.562c.145.059.31.047.444-.033l1.114-.66c.132-.078.221-.213.241-.366l.17-1.312c.133-1.027,1.017-1.786,2.053-1.786ZM12.909,6.328c-.089.678-.486,1.278-1.079,1.626l-1.515.891c-.604.355-1.341.409-1.99.145l-1.035-.42c-.229-.093-.491-.005-.617.207l-1.439,2.407c-.132.221-.074.507.134.66l.97.711c.572.419.909,1.082.909,1.787v1.316c0,.705-.337,1.369-.909,1.787l-.97.711c-.208.153-.266.438-.134.66l1.439,2.407c.127.212.389.3.617.207l1.035-.42c.65-.264,1.386-.21,1.99.145l1.515.891c.593.349.99.948,1.079,1.626l.117.893c.033.249.245.435.496.435h2.957c.251,0,.463-.186.496-.435l.117-.893c.089-.678.486-1.278,1.079-1.626l1.515-.891c.604-.355,1.341-.409,1.99-.145l1.035.42c.229.093.491.005.617-.207l1.439-2.407c.132-.221.074-.507-.134-.66l-.97-.711c-.572-.419-.909-1.082-.909-1.787v-1.316c0-.705.337-1.369.909-1.787l.97-.711c.208-.153.266-.438.134-.66l-1.439-2.407c-.127-.212-.389-.3-.617-.207l-1.035.42c-.65.264-1.386.21-1.99-.145l-1.515-.891c-.593-.349-.99-.948-1.079-1.626l-.117-.893c-.033-.249-.245-.435-.496-.435h-2.957c-.251,0-.463.186-.496.435l-.117.893Z"/>
    </g>
  </g>
</svg>