<?xml version="1.0" encoding="UTF-8"?>
<svg id="Layer_1" xmlns="http://www.w3.org/2000/svg" version="1.1" viewBox="0 0 30 30">
  <!-- Generator: Adobe Illustrator 29.3.1, SVG Export Plug-In . SVG Version: 2.1.0 Build 151)  -->
  <defs>
    <style>
      .st0 {
        fill: none;
      }

      .st1 {
        fill: #b2b2b2;
      }

      .st1, .st2 {
        fill-rule: evenodd;
      }

      .st2 {
        fill: #1b1b1b;
      }
    </style>
  </defs>
  <g id="_x32_4x24_x2F_USER-INTERFACE_x2F_power">
    <g id="power">
      <g id="Bounding_Boxes">
        <polygon id="Shape" class="st0" points="0 0 30 0 30 30 0 30 0 0"/>
      </g>
      <path id="c2_x2F_power" class="st1" d="M15,3.75h0c.69,0,1.25.56,1.25,1.25v7.5c0,.69-.56,1.25-1.25,1.25h0c-.69,0-1.25-.56-1.25-1.25v-7.5c0-.69.56-1.25,1.25-1.25Z"/>
      <path id="c1_x2F_power" class="st2" d="M7.974,6.213c.539-.431,1.326-.344,1.757.195.431.539.344,1.326-.195,1.757-2.063,1.652-3.287,4.142-3.287,6.835,0,4.832,3.918,8.75,8.75,8.75s8.75-3.918,8.75-8.75c0-2.69-1.22-5.177-3.279-6.829-.538-.432-.625-1.219-.193-1.757.432-.538,1.219-.625,1.757-.193,2.644,2.121,4.214,5.322,4.214,8.779,0,6.213-5.037,11.25-11.25,11.25S3.75,21.213,3.75,15c0-3.461,1.574-6.666,4.224-8.787Z"/>
    </g>
  </g>
</svg>